<svg width="200" height="200" viewBox="0 0 200 200" fill="none" xmlns="http://www.w3.org/2000/svg">
<path d="M58.3333 77.3083L43.425 85.575C41.8028 86.475 40.2 86.725 38.6167 86.325C37.0389 85.9361 35.8 84.9278 34.9 83.3L24.65 65.35C23.75 63.7278 23.5 62.1 23.9 60.4667C24.2889 58.8278 25.2972 57.5611 26.925 56.6667L66.5 33.3333H76.5917C78.1639 33.3333 79.4139 33.7944 80.3417 34.7167C81.2639 35.6444 81.725 36.8944 81.725 38.4667V40.0667C81.725 44.9667 83.5444 49.2361 87.1833 52.875C90.8222 56.5139 95.0944 58.3333 100 58.3333C104.906 58.3333 109.178 56.5139 112.817 52.875C116.456 49.2361 118.272 44.9667 118.267 40.0667V38.4667C118.267 36.8944 118.731 35.6444 119.658 34.7167C120.581 33.7944 121.828 33.3333 123.4 33.3333H133.492L173.075 56.6667C174.703 57.5667 175.714 58.8333 176.108 60.4667C176.497 62.1 176.247 63.7278 175.358 65.35L165.1 83.3C164.2 84.9222 162.967 85.9222 161.4 86.3C159.833 86.6778 158.222 86.4222 156.567 85.5333L141.667 77.3583V160.258C141.667 162.081 141.056 163.606 139.833 164.833C138.611 166.061 137.083 166.672 135.25 166.667H64.75C62.9167 166.667 61.3889 166.056 60.1667 164.833C58.9444 163.611 58.3333 162.083 58.3333 160.25V77.3083ZM66.6667 63.3333V158.333H133.333V63.3333L158.85 77.3333L167.275 62.9167L131.608 41.7667H126.317C125.833 48.7389 123.111 54.6333 118.15 59.45C113.189 64.2611 107.139 66.6667 100 66.6667C92.8611 66.6667 86.8111 64.2611 81.85 59.45C76.8889 54.6389 74.1667 48.7417 73.6833 41.7583H68.4L32.725 62.9167L41.1583 77.3333L66.6667 63.3333Z" fill="black"/>
</svg>
