<svg width="1123" height="301" viewBox="0 0 1123 301" fill="none" xmlns="http://www.w3.org/2000/svg">
<path d="M78 207H60C48.8 207 39 204.9 30.6 200.7C22.4 196.3 16.2 190.7 12 183.9C4 170.9 8.49366e-07 157 8.49366e-07 142.2C8.49366e-07 127.4 3.2 112.7 9.6 98.1C16 83.5 24 71.5 33.6 62.1C43.2 52.5 53.3 45 63.9 39.6C74.5 34 83.6 31.2 91.2 31.2C98.8 31.2 105.5 32.8 111.3 36C117.1 39.2 120 42.6 120 46.2C120 52.2 117 55.2 111 55.2C109.2 55.2 106.5 54.2 102.9 52.2C99.5 50.2 95.4 49.2 90.6 49.2C86 49.2 79.5 51.5 71.1 56.1C62.7 60.7 54.5 66.9 46.5 74.7C38.5 82.5 31.7 92.6 26.1 105C20.7 117.4 18 130.1 18 143.1C18 155.9 21.2 166.8 27.6 175.8C34.2 184.6 45 189 60 189H78C95.8 189 111.6 186.7 125.4 182.1C129.6 180.7 132 180 132.6 180C138.6 180 141.6 183 141.6 189C141.6 193.4 138.6 196.6 132.6 198.6C115.8 204.2 97.6 207 78 207ZM303.741 189C303.741 197 294.541 201 276.141 201C267.541 201 260.841 199.1 256.041 195.3C251.441 191.5 249.141 184.9 249.141 175.5C249.141 166.1 248.341 158 246.741 151.2C245.141 144.4 242.941 141 240.141 141C231.741 141 223.741 148.8 216.141 164.4C212.941 170.8 209.541 177.3 205.941 183.9C202.341 190.3 197.541 195.8 191.541 200.4C185.741 204.8 178.941 207 171.141 207C153.141 207 144.141 189.6 144.141 154.8C144.141 129.8 146.841 105.5 152.241 81.9C157.841 58.3 165.541 38.9 175.341 23.7C185.341 8.3 195.841 0.599993 206.841 0.599993C217.841 0.599993 226.141 4.6 231.741 12.6C237.341 20.6 240.141 31 240.141 43.8C240.141 56.4 236.541 68.9 229.341 81.3C222.341 93.5 213.741 103.4 203.541 111C198.541 115 194.741 117 192.141 117C186.141 117 183.141 114 183.141 108C183.141 105.6 186.541 101.8 193.341 96.6C200.141 91.4 206.641 84 212.841 74.4C219.041 64.6 222.141 53.2 222.141 40.2C222.141 34.8 220.941 29.9 218.541 25.5C216.141 20.9 212.341 18.6 207.141 18.6C201.141 18.6 194.641 24.9 187.641 37.5C180.841 49.9 174.841 66.9 169.641 88.5C164.641 110.1 162.141 132.3 162.141 155.1C162.141 177.7 165.141 189 171.141 189C179.541 189 187.541 181.2 195.141 165.6C198.341 159.2 201.741 152.8 205.341 146.4C208.941 139.8 213.641 134.3 219.441 129.9C225.441 125.3 232.341 123 240.141 123C258.141 123 267.141 140 267.141 174C267.141 180 270.041 183 275.841 183C281.841 183 286.341 182.5 289.341 181.5C292.341 180.5 294.141 180 294.741 180C300.741 180 303.741 183 303.741 189ZM363.452 58.2C366.652 58.2 369.952 59.7 373.352 62.7C376.752 65.5 378.452 68.5 378.452 71.7C378.452 74.7 377.052 77 374.252 78.6C371.652 80.2 368.752 81 365.552 81C362.352 81 359.652 79.6 357.452 76.8C355.452 73.8 354.452 70.6 354.452 67.2C354.452 61.2 357.452 58.2 363.452 58.2ZM336.452 169.8C325.252 181.8 313.852 190.4 302.252 195.6C298.652 197.2 295.752 198 293.552 198C287.552 198 284.552 195 284.552 189C284.552 185.2 287.552 182.1 293.552 179.7C296.752 178.5 300.952 176.1 306.152 172.5C311.552 168.9 315.152 166.2 316.952 164.4C318.752 162.6 321.852 159.3 326.252 154.5C330.852 149.7 334.452 146.1 337.052 143.7C339.652 141.1 343.152 138.5 347.552 135.9C352.152 133.3 356.352 132 360.152 132C367.952 132 373.952 134.8 378.152 140.4C382.352 146 384.852 152.2 385.652 159C387.852 177 391.352 186 396.152 186C399.952 186 404.852 185 410.852 183C416.852 181 420.152 180 420.752 180C426.752 180 429.752 183 429.752 189C429.752 193.4 426.752 196.6 420.752 198.6C409.952 202.2 401.152 204 394.352 204C387.752 204 382.352 201.2 378.152 195.6C373.952 190 371.452 183.8 370.652 177C368.452 159 364.952 150 360.152 150C357.552 150 354.552 151.7 351.152 155.1C347.952 158.3 345.352 160.9 343.352 162.9C341.352 164.7 339.052 167 336.452 169.8ZM666.129 138C679.729 138 687.729 147.6 690.129 166.8C690.329 167.8 690.529 169.6 690.729 172.2C691.129 174.6 691.429 176.5 691.629 177.9C691.829 179.3 692.129 180.4 692.529 181.2C692.529 182 692.729 182.8 693.129 183.6C693.729 185.2 694.729 186 696.129 186C699.929 186 704.829 185 710.829 183C716.829 181 720.129 180 720.729 180C726.729 180 729.729 183 729.729 189C729.729 193.4 726.729 196.6 720.729 198.6C709.929 202.2 701.529 204 695.529 204C682.529 204 674.729 192.4 672.129 169.2C670.929 160.4 668.929 156 666.129 156C660.129 156 652.529 163 643.329 177C639.929 182.2 635.429 187 629.829 191.4C624.229 195.8 618.529 198 612.729 198C606.929 198 602.329 196 598.929 192C595.529 188 593.329 184.2 592.329 180.6C591.129 176.6 589.229 167.9 586.629 154.5C584.029 141.1 582.229 134 581.229 133.2C580.429 132.4 579.729 132 579.129 132C576.329 132 573.829 133.8 571.629 137.4C569.629 140.8 567.329 145.6 564.729 151.8C562.129 158 559.629 164.4 557.229 171C555.029 177.4 553.229 182.2 551.829 185.4C550.429 188.4 548.529 191.9 546.129 195.9C541.729 203.3 535.729 207 528.129 207C522.929 207 518.529 205.2 514.929 201.6C511.329 198 508.529 193.4 506.529 187.8C502.929 176.6 501.029 165.2 500.829 153.6C500.829 141.8 499.629 132.8 497.229 126.6C495.029 120.2 492.329 117 489.129 117C478.729 117 470.929 123.4 465.729 136.2C463.329 142.4 460.729 151.2 457.929 162.6C453.929 178 444.429 188.9 429.429 195.3C426.229 197.1 422.929 198 419.529 198C413.529 198 410.529 195 410.529 189C410.529 185.2 413.529 182.1 419.529 179.7C421.929 178.7 423.229 178.2 423.429 178.2C423.829 178 424.629 177.6 425.829 177C427.029 176.4 427.829 176 428.229 175.8C428.629 175.4 429.329 174.9 430.329 174.3C431.529 173.5 432.329 172.8 432.729 172.2C433.329 171.4 434.029 170.5 434.829 169.5C435.829 168.5 436.529 167.5 436.929 166.5C438.529 163.5 439.929 159.6 441.129 154.8C442.329 150 443.429 146 444.429 142.8C445.429 139.6 447.329 134.7 450.129 128.1C452.929 121.3 455.829 116.2 458.829 112.8C461.829 109.4 465.929 106.3 471.129 103.5C476.529 100.5 483.029 99 490.629 99C498.429 99 505.029 103.5 510.429 112.5C516.029 121.3 518.829 134.8 518.829 153C518.829 159.4 519.529 167 520.929 175.8C522.529 184.6 524.929 189 528.129 189C529.729 189 531.429 186.9 533.229 182.7C535.029 178.3 536.529 174.6 537.729 171.6C538.929 168.4 540.329 164.6 541.929 160.2C547.929 143.2 553.829 131.3 559.629 124.5C565.429 117.5 571.929 114 579.129 114C587.529 114 593.529 117.8 597.129 125.4C600.129 132 602.229 138.5 603.429 144.9C607.429 168.3 610.329 180 612.129 180C618.129 180 625.729 173 634.929 159C638.329 153.8 642.829 149 648.429 144.6C654.029 140.2 659.929 138 666.129 138ZM846.129 153C846.129 159 843.129 162 837.129 162C836.729 162 832.029 161.5 823.029 160.5C814.029 159.5 806.729 159 801.129 159C783.129 159 769.229 160.7 759.429 164.1C757.629 164.7 755.529 165 753.129 165C747.129 165 744.129 162.1 744.129 156.3C744.129 152.1 747.129 149 753.129 147C765.129 143 781.129 141 801.129 141C807.129 141 819.129 142 837.129 144C843.129 144.8 846.129 147.8 846.129 153ZM984.27 126C984.27 151.2 983.07 178.2 980.67 207C978.47 236 975.67 258.2 972.27 273.6C968.47 291.6 959.47 300.6 945.27 300.6C919.27 300.6 906.27 283.2 906.27 248.4C906.27 238.8 908.87 229.5 914.07 220.5C919.47 211.5 925.47 207 932.07 207C938.87 207 942.27 210 942.27 216C942.27 217.4 940.87 219.1 938.07 221.1C928.87 227.5 924.27 236.4 924.27 247.8C924.27 259.4 925.67 268.1 928.47 273.9C931.47 279.7 937.07 282.6 945.27 282.6C950.07 282.6 953.37 278 955.17 268.8C958.97 251 962.07 222.8 964.47 184.2C965.27 172 965.57 164.6 965.37 162C961.17 168 958.07 171.8 956.07 173.4C954.27 174.8 952.37 176.3 950.37 177.9C948.57 179.3 946.77 180.5 944.97 181.5C943.37 182.3 941.27 183.3 938.67 184.5C936.27 185.5 933.77 186.3 931.17 186.9C925.17 188.3 918.87 189 912.27 189C901.67 189 894.07 183 889.47 171C883.27 155.2 878.97 135.2 876.57 111C876.37 109.8 876.27 108.2 876.27 106.2C876.27 101.4 879.07 99 884.67 99C890.47 99 893.67 102 894.27 108C895.67 121.2 897.97 135 901.17 149.4C904.57 163.8 908.27 171 912.27 171C925.27 171 935.37 167.7 942.57 161.1C949.77 154.5 957.67 142.8 966.27 126C968.67 120 971.67 117 975.27 117C981.27 117 984.27 120 984.27 126ZM1122.4 153C1122.4 159 1119.4 162 1113.4 162C1113 162 1108.3 161.5 1099.3 160.5C1090.3 159.5 1083 159 1077.4 159C1059.4 159 1045.5 160.7 1035.7 164.1C1033.9 164.7 1031.8 165 1029.4 165C1023.4 165 1020.4 162.1 1020.4 156.3C1020.4 152.1 1023.4 149 1029.4 147C1041.4 143 1057.4 141 1077.4 141C1083.4 141 1095.4 142 1113.4 144C1119.4 144.8 1122.4 147.8 1122.4 153Z" fill="#111111"/>
</svg>
