<svg width="1014" height="610" viewBox="0 0 1014 610" fill="none" xmlns="http://www.w3.org/2000/svg">
<path fill-rule="evenodd" clip-rule="evenodd" d="M267.966 71.1149C337.818 27.8664 422.763 1.51921 506.749 7.96664C595.355 14.7687 683.172 58.082 751.43 157.191C751.479 157.262 751.53 157.331 751.584 157.398C743.062 160.207 734.293 163.407 725.213 166.982C689.496 155.051 663.614 148.434 640.985 145.888C618.676 143.379 599.666 144.841 577.661 148.91C535.067 102.154 490.993 75.0377 425.917 66.1121C383.772 60.3316 332.885 62.1921 267.966 71.1149ZM251.622 73.4653C251.835 73.2099 252.088 72.9808 252.379 72.7877C325.343 24.4472 416.681 -5.96828 507.285 0.98718C598.027 7.95321 687.753 52.3937 757.195 153.22C757.653 153.886 757.85 154.654 757.807 155.403C794.856 143.867 827.416 139.985 860.968 145.035C904.235 151.548 948.723 172.855 1006.31 210.788L1006.02 211.229C1009.65 213.426 1011.92 216.529 1012.84 220.437C1013.8 224.507 1013.22 229.118 1011.91 233.946C1009.85 241.559 1005.63 250.936 1000.83 261.592C999.588 264.352 998.306 267.198 997.013 270.121L996.544 271.181L995.535 271.752C984.969 277.729 979.503 285.704 970.046 308.544L970.009 308.632L969.968 308.718C967.993 312.84 966.039 316.972 964.088 321.1C949.115 352.771 934.256 384.201 910.563 409.124C883.953 437.115 846.415 456.753 785.726 460.542C783.668 505.425 777.573 533.469 764.866 550.556C759.191 558.188 752.305 563.507 744.174 567.182C744.018 567.721 743.73 568.229 743.31 568.657C721.773 590.597 687.902 602.908 654.41 607.669C620.911 612.432 587.01 609.754 565.012 600.955C564.367 600.697 563.841 600.269 563.466 599.743C552.307 599.278 540.217 595.783 527.935 590.421C503.9 579.927 477.907 561.771 454.033 542.226C430.121 522.651 408.161 501.537 392.176 484.972C384.184 476.689 377.665 469.522 373.129 464.233C370.866 461.594 369.068 459.39 367.821 457.732C367.203 456.91 366.679 456.169 366.295 455.547C366.105 455.24 365.909 454.898 365.748 454.548L365.745 454.542C365.643 454.321 365.312 453.601 365.312 452.705H368.809C314.089 443.526 262.62 406.922 226.79 345.706C226.19 345.702 225.586 345.518 225.062 345.141C139.545 283.664 82.1824 229.458 46.7937 184.582C11.5221 139.855 -2.31502 103.893 0.311868 79.0335C1.64153 66.4501 7.20662 56.6821 16.3067 50.3274C25.3283 44.0276 37.5034 41.3022 51.7383 42.0599C80.1702 43.5733 117.753 59.0076 158.152 89.9401C158.163 89.9481 158.173 89.9562 158.184 89.9644C192.18 83.2409 223.193 77.7267 251.622 73.4653ZM150.301 91.5343C112.065 63.1474 77.2411 49.4259 51.4194 48.0514C38.0559 47.3401 27.3381 49.9422 19.7419 55.2467C12.2243 60.4963 7.44677 68.6094 6.27864 79.664C3.90996 102.08 16.4565 136.422 51.505 180.867C85.3273 223.756 139.74 275.587 220.53 334.455C207.018 308.897 196.106 279.458 188.578 246.317C183.922 227.128 179.538 214.325 173.271 205.53C167.175 196.974 159.108 191.965 146.305 188.922L144.451 188.482L143.815 186.686C132.957 156.047 127.163 135.093 127.097 120.698C127.064 113.394 128.495 107.43 131.78 102.693C134.898 98.198 139.423 95.1869 144.995 93.0816C145.441 92.6868 145.994 92.4008 146.62 92.2746C147.851 92.0263 149.078 91.7795 150.301 91.5343ZM705.78 574.667C714.216 574.284 721.952 573.484 729.001 572C709.081 587.415 681.479 596.751 653.425 600.739C626.224 604.607 599.137 603.371 578.992 598.138C583.081 597.02 586.956 595.31 590.57 592.93C612.157 597.268 629.556 599.003 647.251 596.489C665.155 593.945 683.082 587.092 705.78 574.667ZM373.322 453.399L373.416 453.524C374.535 455.013 376.224 457.089 378.443 459.676C382.87 464.838 389.292 471.902 397.214 480.111C413.057 496.53 434.816 517.448 458.467 536.81C482.155 556.202 507.568 573.89 530.736 584.006C554.113 594.212 574.005 596.211 587.776 586.359L589.018 585.471L590.514 585.776C612.465 590.266 629.335 591.964 646.266 589.559C663.195 587.153 680.471 580.602 703.125 568.139L703.844 567.743L704.665 567.709C730.97 566.605 747.976 561.537 759.249 546.378C770.802 530.843 776.913 504.03 778.85 457.559L779.263 457.576C775.785 446.422 772.027 438.11 768.102 432.279C764.096 426.327 760.096 423.221 756.285 422.051L754.118 421.386L753.839 419.136C751.943 403.849 746.985 392.44 733.709 377.846C720.228 363.026 698.356 345.126 662.644 316.953L662.016 316.458C661.639 316.307 661.282 316.089 660.964 315.801C650.352 306.199 640.202 300.535 629.547 297.57C618.859 294.597 607.438 294.276 594.182 295.686C593.912 295.715 593.646 295.712 593.388 295.68C547.573 403.979 470.79 455.662 394.802 454.991C387.611 454.927 380.442 454.395 373.322 453.399ZM654.829 254.638C655.463 265.247 657.238 281.625 660.26 306.012C650.812 298.471 641.392 293.6 631.423 290.826C620.435 287.769 608.974 287.315 596.371 288.438C603.363 271.003 609.572 252.163 614.872 231.903C614.982 231.482 615.01 231.06 614.968 230.651C615.29 229.981 615.402 229.204 615.238 228.419C614.837 226.507 614.417 224.681 614.023 222.968L613.994 222.842C613.589 221.079 613.215 219.449 612.901 217.903C612.267 214.778 611.934 212.249 612.059 210.098C612.179 208.032 612.719 206.393 613.818 204.947C614.955 203.453 616.89 201.902 620.244 200.399L620.422 200.319L620.591 200.219C629.361 195.043 636.962 193.848 645.391 195.079C653.946 196.329 663.361 200.065 675.84 205.18C679.07 208.475 679.466 210.753 679.203 212.336C678.873 214.325 677.329 216.549 674.418 219.277C673.017 220.59 671.431 221.905 669.728 223.286L669.516 223.459L669.193 223.72L668.752 224.076L668.75 224.077C667.366 225.196 665.925 226.361 664.558 227.539C661.925 229.808 659.217 232.411 657.354 235.416C656.697 235.999 656.228 236.706 655.902 237.38C655.332 238.559 655.022 239.971 654.836 241.453C654.46 244.447 654.478 248.766 654.829 254.638ZM424.966 73.0472C360.994 64.2729 275.821 73.3976 149.103 98.9149C148.853 99.087 148.577 99.2293 148.277 99.3349C143.152 101.141 139.727 103.517 137.532 106.683C135.327 109.861 134.068 114.259 134.097 120.666C134.156 133.441 139.296 152.792 149.787 182.576C162.834 185.977 172.002 191.686 178.972 201.468C186.096 211.467 190.723 225.466 195.387 244.692L195.393 244.717L195.399 244.742C225.447 377.06 309.555 447.237 394.864 447.991C480.109 448.744 568.849 380.173 608.1 230.131C608.155 229.92 608.228 229.719 608.318 229.528C607.952 227.801 607.57 226.14 607.196 224.514L607.172 224.411C606.77 222.664 606.376 220.945 606.041 219.295C605.378 216.028 604.891 212.775 605.071 209.691C605.256 206.522 606.146 203.472 608.247 200.71C610.28 198.036 613.256 195.885 617.2 194.093C627.288 188.181 636.458 186.7 646.403 188.153C656.128 189.573 666.576 193.814 679.14 198.967L679.764 199.223L680.249 199.693C684.842 204.147 686.897 208.731 686.109 213.481C685.376 217.899 682.296 221.487 679.206 224.384C677.607 225.883 675.85 227.334 674.138 228.722C673.802 228.996 673.467 229.266 673.135 229.534L673.114 229.552C671.736 230.665 670.404 231.742 669.128 232.841C665.883 235.638 663.569 238.125 662.536 240.569C662.376 240.947 662.158 241.282 661.896 241.568C661.857 241.785 661.818 242.035 661.782 242.324C661.491 244.638 661.469 248.412 661.816 254.221C662.496 265.58 664.529 283.902 668.105 312.346C679.406 321.265 689.359 329.188 698.122 336.341C696.884 268.499 720.332 217.257 758.95 189.472C798.847 160.767 854.077 157.715 912.832 186.053C943.007 200.606 957.281 225.753 959.65 254.656C962.003 283.361 952.64 315.677 935.964 345.299C919.27 374.954 895.072 402.226 867.314 420.817C841.203 438.305 811.707 448.256 782.267 444.939C783.319 447.626 784.339 450.497 785.329 453.553C844.487 449.853 880.27 430.83 905.489 404.301C928.353 380.251 942.708 349.912 957.753 318.115L957.753 318.114C959.689 314.023 961.636 309.908 963.614 305.779C972.867 283.446 978.998 273.42 991.073 266.248C992.285 263.516 993.466 260.894 994.597 258.379L994.598 258.378L994.599 258.376C999.354 247.81 1003.26 239.14 1005.15 232.12C1006.35 227.703 1006.59 224.433 1006.03 222.042C1005.52 219.88 1004.29 218.167 1001.68 216.819L1001.94 216.296C944.874 178.75 901.548 158.223 859.926 151.957C818.272 145.687 777.896 153.64 726.601 173.959L725.412 174.431L724.199 174.024C688.019 161.892 662.356 155.336 640.203 152.844C618.124 150.361 599.388 151.898 577.037 156.149L575.103 156.517L573.784 155.055C531.684 108.409 488.804 81.803 424.966 73.0472ZM779.025 437.439C807.653 441.945 837.003 432.693 863.418 415.001C890.171 397.083 913.65 370.668 929.864 341.865C946.097 313.03 954.877 282.117 952.673 255.228C950.485 228.536 937.503 205.724 909.791 192.358C852.773 164.858 800.382 168.286 763.038 195.155C725.696 222.022 702.541 272.942 705.297 342.248C719.927 354.41 730.818 364.265 738.887 373.136C752.446 388.04 758.203 400.342 760.501 416.157C765.496 418.315 769.946 422.483 773.909 428.37C775.684 431.006 777.388 434.027 779.025 437.439ZM512.138 352.446C544.156 312.242 564.812 261.984 564.812 221.205C564.812 184.276 546.548 157.065 516.284 137.661C485.794 118.112 443.291 106.675 395.985 102.206C352.31 102.255 314.168 112.163 287.119 131.771C260.291 151.22 243.812 180.588 243.812 221.205C243.812 263.614 249.426 312.399 271.283 351.116C292.808 389.246 330.431 418.271 396.463 421.205C438.066 421.137 480.079 392.701 512.138 352.446ZM396.312 428.205C259.312 422.205 236.812 306.81 236.812 221.205C236.812 135.601 306.842 95.2055 396.312 95.2055C492.312 104.205 571.812 141.705 571.812 221.205C571.812 306.81 485.782 428.205 396.312 428.205ZM670.063 426.313C656.726 434.768 643.163 450.529 624.815 475.012C623.521 476.739 623.658 479.168 625.146 480.745C637.967 494.33 644.508 500.502 652.117 503.477C652.667 503.692 653.202 503.94 653.719 504.218C662.898 501.244 669.569 499.015 673.901 497.104C676.13 496.121 677.454 495.341 678.145 494.758C678.19 494.719 678.23 494.684 678.266 494.653C677.604 489.944 677.915 485.549 681.417 481.641C685.446 477.146 691.161 475.668 696.556 476.163C701.923 476.656 707.307 479.103 711.231 482.936C714.194 485.83 716.649 489.381 716.112 493.45C715.572 497.537 712.243 500.452 708.132 502.681C700.033 507.071 684.776 510.988 661.251 515.235C661.302 515.73 661.326 516.232 661.321 516.74C661.277 521.417 662.068 525.269 663.688 528.607C665.307 531.945 667.853 534.971 671.611 537.855C678.873 543.429 690.321 548.233 707.29 553.571C707.267 553.176 707.311 552.772 707.43 552.371C710.499 542.039 712.776 534.54 714.6 529.147C716.391 523.85 717.851 520.244 719.359 517.947L719.688 517.445L720.166 517.082C723.687 514.404 725.888 511.664 727.402 507.328C728.99 502.778 729.86 496.362 730.288 486.22C730.37 484.289 732.001 482.789 733.933 482.871C735.864 482.952 737.363 484.584 737.282 486.515C736.849 496.75 735.961 504.048 734.011 509.635C732.066 515.207 729.112 518.953 724.926 522.249C724.015 523.808 722.863 526.562 721.231 531.39C719.9 535.327 718.306 540.459 716.295 547.146C727.67 538.118 736.723 532.837 749.979 526.347C750.893 525.899 751.66 525.14 752.135 524.198C754.527 519.461 756.624 515.799 758.381 512.752L758.608 512.357L758.609 512.356L758.612 512.351L758.612 512.35L758.615 512.346L758.619 512.34C760.259 509.494 761.524 507.3 762.511 505.188C761.938 505.244 761.304 505.273 760.605 505.273C752.605 511.617 742.605 507.11 742.605 498.273C742.605 489.437 750.387 468.773 760.605 468.773C766.009 468.773 767.457 472.317 767.621 476.962C769.388 469.791 770.091 464.042 769.742 458.839C769.28 451.948 766.951 445.704 762.198 438.141C761.98 437.795 761.694 437.467 761.359 437.185C754.248 431.206 748.438 426.97 742.006 424.443C735.66 421.949 728.447 421.022 718.443 422.168C716.844 422.351 715.202 422.214 713.658 421.77C695.946 416.681 683.017 418.1 670.063 426.313ZM666.315 420.401C681.272 410.918 696.342 409.511 715.591 415.042C716.252 415.232 716.966 415.292 717.646 415.214C728.521 413.967 736.929 414.926 744.566 417.928C752.117 420.895 758.652 425.764 765.864 431.828C766.732 432.558 767.506 433.432 768.124 434.416C773.289 442.634 776.165 449.992 776.727 458.371C777.281 466.645 775.554 475.601 772.112 486.955C771.944 487.508 771.873 488.116 771.909 488.725C772.424 497.435 771.429 502.599 768.899 508.052C767.77 510.485 766.343 512.958 764.744 515.729L764.743 515.731L764.445 516.248C762.703 519.27 760.685 522.796 758.384 527.354C757.238 529.623 755.374 531.499 753.057 532.634C736.832 540.577 727.308 546.516 711.317 560.416L709.85 561.691L707.992 561.12C689.505 555.437 676.101 550.125 667.349 543.408C662.905 539.997 659.573 536.163 657.39 531.663C655.207 527.164 654.269 522.201 654.322 516.673C654.348 513.855 652.44 511.119 649.568 509.996C640.225 506.343 632.615 498.859 620.055 485.549C616.237 481.503 615.87 475.275 619.213 470.814C637.478 446.443 651.74 429.641 666.315 420.401ZM686.63 486.313C688.84 483.847 692.162 482.79 695.917 483.134C699.699 483.481 703.577 485.246 706.34 487.944C708.976 490.519 709.25 491.942 709.172 492.533C709.096 493.106 708.465 494.538 704.796 496.527C698.644 499.862 686.907 503.185 667.978 506.856C671.446 505.648 674.374 504.546 676.726 503.509C679.104 502.46 681.18 501.357 682.66 500.107C684.114 498.879 685.704 496.871 685.268 494.156C684.629 490.052 685.055 488.071 686.63 486.313ZM678.488 494.42C678.489 494.42 678.484 494.428 678.472 494.443C678.482 494.428 678.488 494.421 678.488 494.42ZM760.496 498.049C760.488 497.97 760.479 497.889 760.47 497.805C760.448 497.6 760.423 497.379 760.396 497.141L760.362 496.845C760.164 495.123 759.897 492.802 759.897 490.273C759.897 488.031 760.112 485.596 760.294 483.526V483.525C760.323 483.203 760.35 482.89 760.376 482.588C760.588 480.122 760.705 478.217 760.599 476.694C760.573 476.312 760.535 476.014 760.497 475.784C760.232 475.83 759.51 476.059 758.324 477.195C756.909 478.55 755.401 480.682 753.999 483.409C751.119 489.014 749.605 495.282 749.605 498.273C749.605 499.79 750.331 500.608 751.266 500.991C752.234 501.389 754.076 501.516 756.255 499.788L758.166 498.273H760.519L760.506 498.146L760.496 498.049Z" fill="black"/>
<path d="M468.789 374.134L469.117 374.512L469.495 374.184L479.89 365.169L480.268 364.842L479.94 364.464L478.971 363.346L478.643 362.968L478.265 363.296L467.87 372.311L467.492 372.638L467.82 373.016L468.789 374.134Z" fill="black" stroke="black"/>
<path d="M448.35 369.758L448.125 369.89L448.104 370.149L446.173 393.473L446.16 393.63L446.239 393.766L446.986 395.044L447.239 395.476L447.67 395.223L458.841 388.692L462.243 394.51L462.495 394.942L462.927 394.69L464.205 393.943L464.636 393.69L464.384 393.259L460.982 387.44L464.728 385.249L465.16 384.997L464.908 384.565L464.181 383.322L463.929 382.891L463.497 383.143L459.75 385.334L450.312 369.191L450.059 368.759L449.628 369.011L448.35 369.758ZM448.788 391.743L450.262 374.019L457.609 386.585L448.788 391.743Z" fill="black" stroke="black"/>
<path d="M434.899 404.23L434.712 403.766L434.248 403.952L421.124 409.231L426.188 395.682L426.189 395.679L426.439 395.02L426.44 395.019C427.057 393.376 427.488 391.928 427.725 390.678C427.975 389.362 427.828 388.04 427.297 386.722C426.708 385.256 425.804 384.07 424.586 383.177C423.396 382.277 422.035 381.753 420.514 381.602C419.002 381.417 417.479 381.638 415.95 382.253C414.46 382.852 413.228 383.774 412.263 385.016L412.263 385.016L412.261 385.02C411.325 386.248 410.742 387.64 410.515 389.188C410.276 390.721 410.459 392.237 411.058 393.727L411.245 394.19L411.709 394.004L413.082 393.452L413.546 393.265L413.359 392.801C412.924 391.718 412.793 390.63 412.96 389.528L412.96 389.528L412.96 389.522C413.12 388.389 413.539 387.383 414.221 386.497C414.927 385.599 415.805 384.941 416.861 384.516C417.978 384.067 419.076 383.909 420.161 384.03L420.161 384.03L420.166 384.031C421.277 384.144 422.244 384.52 423.08 385.158L423.079 385.158L423.087 385.164C423.947 385.793 424.582 386.617 424.996 387.647C425.358 388.545 425.451 389.486 425.272 390.48C425.073 391.499 424.696 392.715 424.132 394.133L424.132 394.133L424.129 394.14L423.878 394.802L423.877 394.803L421.039 402.325L421.038 402.328L417.934 410.69L417.867 410.871L417.939 411.05L418.491 412.423L418.678 412.887L419.142 412.701L435.174 406.253L435.638 406.067L435.451 405.603L434.899 404.23Z" fill="black" stroke="black"/>
<path d="M387.515 413.73L387.515 413.73L387.521 413.728C389.139 413.039 390.483 412 391.545 410.614C392.637 409.228 393.302 407.642 393.539 405.864L394.887 395.754C395.124 393.976 394.899 392.271 394.208 390.647C393.546 389.031 392.519 387.688 391.133 386.625C389.747 385.534 388.161 384.869 386.383 384.632C384.606 384.395 382.9 384.62 381.277 385.311C379.661 385.973 378.306 386.997 377.217 388.378L377.217 388.378L377.213 388.383C376.149 389.773 375.498 391.36 375.261 393.136L373.913 403.246C373.676 405.022 373.888 406.725 374.551 408.344L374.551 408.344L374.553 408.351C375.242 409.968 376.279 411.324 377.659 412.412L377.659 412.412L377.664 412.417C379.054 413.481 380.641 414.132 382.417 414.368C384.193 414.605 385.895 414.393 387.515 413.73ZM382.204 387.598L382.204 387.598L382.208 387.597C383.436 387.08 384.715 386.911 386.055 387.09C387.346 387.262 388.489 387.729 389.493 388.491C390.407 389.185 391.122 390.025 391.643 391.014L376.321 405.344C376.252 404.727 376.256 404.135 376.331 403.569L377.68 393.459C377.859 392.118 378.355 390.943 379.169 389.922L379.169 389.922L379.172 389.918C379.996 388.863 381.005 388.093 382.204 387.598ZM386.548 411.438L386.548 411.437L386.543 411.439C385.344 411.957 384.08 412.129 382.74 411.95C381.448 411.778 380.306 411.31 379.302 410.548C378.388 409.855 377.673 409.003 377.154 407.989L392.479 393.656C392.549 394.273 392.544 394.865 392.469 395.431L391.12 405.541C390.942 406.881 390.444 408.071 389.624 409.12C388.805 410.147 387.782 410.918 386.548 411.438Z" fill="black" stroke="black"/>
<path d="M352.626 406.384L352.804 405.917L352.337 405.739L339.124 400.685L352.05 394.194L352.053 394.192L352.684 393.879L352.686 393.879C354.255 393.094 355.556 392.325 356.58 391.569C357.657 390.775 358.448 389.705 358.956 388.378C359.52 386.902 359.664 385.418 359.378 383.935C359.117 382.466 358.476 381.156 357.463 380.012C356.481 378.848 355.213 377.974 353.674 377.386C352.174 376.812 350.644 376.65 349.092 376.905L349.092 376.905L349.087 376.906C347.566 377.17 346.192 377.795 344.973 378.775C343.755 379.737 342.859 380.973 342.286 382.473L342.107 382.94L342.574 383.118L343.956 383.647L344.423 383.826L344.602 383.359C345.019 382.268 345.663 381.381 346.535 380.687L346.535 380.687L346.539 380.683C347.426 379.96 348.418 379.508 349.52 379.321C350.649 379.144 351.74 379.258 352.803 379.665C353.928 380.095 354.84 380.725 355.553 381.552L355.553 381.552L355.556 381.556C356.295 382.394 356.748 383.328 356.926 384.363L356.926 384.363L356.928 384.373C357.13 385.419 357.036 386.455 356.64 387.492C356.294 388.396 355.723 389.149 354.915 389.756C354.077 390.369 352.974 391.004 351.596 391.66L351.596 391.66L351.589 391.664L350.955 391.978L350.954 391.978L343.758 395.564L343.755 395.565L335.794 399.587L335.621 399.674L335.552 399.854L335.023 401.237L334.845 401.704L335.312 401.882L351.451 408.055L351.918 408.234L352.097 407.767L352.626 406.384Z" fill="black" stroke="black"/>
<path d="M315.581 372.824L315.276 373.22L315.672 373.525L326.575 381.92L326.971 382.225L327.276 381.829L328.179 380.656L328.484 380.26L328.088 379.955L317.185 371.56L316.789 371.255L316.484 371.651L315.581 372.824Z" fill="black" stroke="black"/>
<path d="M303.745 340.338L303.422 339.956L303.04 340.279L289.899 351.376C288.284 352.74 287.122 354.414 286.422 356.391L286.421 356.394C285.743 358.348 285.574 360.35 285.915 362.39L285.916 362.393C286.275 364.459 287.14 366.304 288.504 367.92C289.868 369.535 291.533 370.687 293.495 371.367C295.466 372.065 297.476 372.245 299.518 371.904L299.521 371.903C301.588 371.544 303.432 370.679 305.048 369.315L318.189 358.218L318.571 357.895L318.249 357.513L317.294 356.383L316.971 356.001L316.589 356.323L303.448 367.42C302.17 368.499 300.726 369.174 299.106 369.449C297.481 369.726 295.895 369.593 294.339 369.047C292.789 368.504 291.477 367.597 290.399 366.32C289.32 365.042 288.645 363.598 288.369 361.978C288.093 360.353 288.226 358.767 288.772 357.211C289.315 355.661 290.222 354.349 291.499 353.271L304.64 342.173L305.022 341.851L304.7 341.469L303.745 340.338Z" fill="black" stroke="black"/>
<path d="M289.234 312.725L289.349 312.482L289.211 312.252L288.306 310.743L287.828 309.945L287.426 310.784L278.986 328.434L269.337 334.218L268.909 334.475L269.166 334.904L269.927 336.173L270.184 336.602L270.613 336.345L280.261 330.56L299.786 331.397L300.713 331.437L300.236 330.641L299.331 329.131L299.192 328.9L298.923 328.889L281.877 328.167L289.234 312.725Z" fill="black" stroke="black"/>
<path d="M267.87 290.421L267.871 290.421C267.845 288.839 268.116 287.438 268.703 286.232L268.706 286.225L268.71 286.219C269.355 284.989 270.435 284.079 271.901 283.471C273.414 282.844 274.925 282.677 276.423 282.989L276.43 282.991L276.43 282.991C277.93 283.327 279.287 284.089 280.498 285.254L280.5 285.257L280.5 285.257C281.72 286.447 282.71 287.973 283.476 289.822C284.219 291.613 284.518 293.421 284.365 295.239C284.247 297.074 283.684 298.725 282.672 300.18C281.655 301.644 280.259 302.739 278.503 303.467L278.041 303.659L277.85 303.197L277.283 301.83L277.092 301.368L277.553 301.176C278.927 300.607 279.98 299.776 280.732 298.689C281.49 297.594 281.908 296.358 281.983 294.97L281.984 294.962L281.984 294.962C282.083 293.559 281.84 292.142 281.244 290.704C280.713 289.423 280.018 288.316 279.161 287.378C278.316 286.454 277.356 285.822 276.278 285.469C275.25 285.154 274.14 285.227 272.925 285.731C271.839 286.181 271.145 286.836 270.777 287.679C270.41 288.569 270.26 289.607 270.345 290.804C270.433 292.038 270.679 293.731 271.086 295.892C271.506 298.091 271.752 299.847 271.82 301.152C271.926 302.524 271.674 303.82 271.065 305.032C270.435 306.33 269.239 307.308 267.566 308.002C265.878 308.702 264.23 308.85 262.642 308.415M267.87 290.421L262.642 308.414C262.642 308.414 262.642 308.415 262.642 308.415M267.87 290.421L267.871 290.432C267.931 292.002 268.19 293.931 268.642 296.212C269.054 298.316 269.295 299.893 269.37 300.956L269.371 300.963L269.372 300.971C269.477 301.998 269.331 302.925 268.948 303.763C268.593 304.539 267.86 305.195 266.653 305.696C264.928 306.411 263.307 306.285 261.739 305.317L261.735 305.315C260.149 304.353 258.892 302.8 257.984 300.609C257.251 298.841 256.937 297.208 257.02 295.704C257.128 294.188 257.598 292.877 258.421 291.756M267.87 290.421L258.421 291.756M262.642 308.415C261.115 308 259.76 307.165 258.579 305.926C257.409 304.698 256.472 303.23 255.767 301.528C254.895 299.425 254.512 297.392 254.638 295.435C254.764 293.478 255.37 291.746 256.462 290.254L256.468 290.246L256.468 290.246C257.595 288.774 259.101 287.652 260.972 286.877L261.434 286.685L261.625 287.147L262.192 288.514L262.384 288.976L261.922 289.168C260.416 289.792 259.256 290.658 258.421 291.756M262.642 308.415L258.421 291.756" fill="black" stroke="black"/>
<path d="M278.035 262.27L278.01 261.936L277.691 261.832L249.069 252.522L248.359 252.291L248.416 253.035L248.533 254.59L248.558 254.924L248.876 255.028L258.018 258.02L259.001 271.033L250.411 275.325L250.111 275.475L250.136 275.81L250.256 277.405L250.313 278.149L250.979 277.814L277.879 264.31L278.178 264.16L278.153 263.826L278.035 262.27ZM260.528 258.843L274.364 263.311L261.358 269.842L260.528 258.843Z" fill="black" stroke="black"/>
<path d="M246.427 219.761L246.449 220.26L246.949 220.237L270.11 219.189L256.063 228.018L255.817 228.173L255.83 228.464L255.893 229.863L255.906 230.154L256.166 230.286L270.747 237.699L247.786 238.738L247.287 238.761L247.31 239.261L247.377 240.739L247.399 241.239L247.899 241.216L275.71 239.956L276.21 239.934L276.187 239.434L276.12 237.956L276.107 237.664L275.846 237.532L259.055 229.038L275.009 219.022L275.256 218.867L275.242 218.576L275.17 216.977L275.147 216.478L274.648 216.501L246.836 217.76L246.337 217.783L246.36 218.282L246.427 219.761Z" fill="black" stroke="black"/>
</svg>
