<svg width="881" height="184" viewBox="0 0 881 184" fill="none" xmlns="http://www.w3.org/2000/svg">
<path d="M0.25 4.74999H10.25L71 112.25L131.5 4.74999H140.75V178.75H0.25V4.74999ZM9.5 169.75H131.5V23.5L75.25 122.5H66.5L9.5 22V169.75ZM337.559 179H173.559L255.559 1.24999L337.559 179ZM188.059 169.75H323.059L255.559 23.25L188.059 169.75ZM441.867 183.5C417.701 183.5 399.034 177.833 385.867 166.5C372.867 155 366.451 137.833 366.617 115H407.367C407.201 124.5 410.034 131.75 415.867 136.75C421.701 141.75 429.867 144.25 440.367 144.25C449.034 144.25 455.867 142.833 460.867 140C465.867 137.167 468.367 132.833 468.367 127C468.367 122.167 465.784 118.667 460.617 116.5C455.617 114.333 450.617 112.833 445.617 112C440.617 111 437.534 110.417 436.367 110.25C423.534 107.75 412.451 104.75 403.117 101.25C393.784 97.5833 385.951 92.0833 379.617 84.75C373.284 77.4167 370.117 67.75 370.117 55.75C370.117 43.75 373.284 33.5833 379.617 25.25C385.951 16.75 394.367 10.4167 404.867 6.24999C415.534 2.08333 427.117 -5.126e-06 439.617 -5.126e-06C454.784 -5.126e-06 467.867 2.83333 478.867 8.49999C490.034 14.1667 498.784 22.75 505.117 34.25C508.284 39.75 510.201 45.0833 510.867 50.25C511.534 55.25 511.867 60.1667 511.867 65H471.117C471.117 56 468.701 49.4167 463.867 45.25C459.034 40.9167 451.534 38.75 441.367 38.75C433.201 38.75 426.867 40.1667 422.367 43C417.867 45.8333 415.617 49.6667 415.617 54.5C415.617 59.8333 418.617 63.75 424.617 66.25C430.617 68.75 438.201 71 447.367 73C462.367 76 474.034 78.9167 482.367 81.75C490.867 84.4167 498.201 89.25 504.367 96.25C510.534 103.25 513.617 113.083 513.617 125.75C513.617 137.75 510.284 148.083 503.617 156.75C496.951 165.417 488.117 172.083 477.117 176.75C466.284 181.25 454.534 183.5 441.867 183.5ZM551.426 4.99999H699.926L630.426 107.75V179H621.176V107.75L551.426 4.99999ZM810.734 182.75C798.068 182.75 786.318 179.583 775.484 173.25C764.818 166.917 756.318 158.417 749.984 147.75C743.651 136.917 740.484 125.167 740.484 112.5V4.99999H880.984V112.5C880.984 125.167 877.818 136.917 871.484 147.75C865.151 158.417 856.568 166.917 845.734 173.25C835.068 179.583 823.401 182.75 810.734 182.75Z" fill="black"/>
</svg>
